<svg xmlns="http://www.w3.org/2000/svg" version="1.1" xmlns:xlink="http://www.w3.org/1999/xlink" width="512" height="512" x="0" y="0" viewBox="0 0 60 60" style="enable-background:new 0 0 512 512" xml:space="preserve"><g><path d="M38.48 48.487a3.968 3.968 0 0 0 2.828-1.175l.707-.71a4.018 4.018 0 0 0 1.159-3.09 4 4 0 0 0 3.08-1.167l.707-.71a4.018 4.018 0 0 0 1.159-3.09 4.026 4.026 0 0 0 3.08-1.168l.706-.71 2.826-2.838a18.132 18.132 0 0 0 0-25.537A17.936 17.936 0 0 0 30 7.616a17.938 17.938 0 0 0-24.733.675 18.133 18.133 0 0 0 0 25.538l6.359 6.387.707.709A3.962 3.962 0 0 0 15.16 42.1c.092 0 .18-.021.271-.027a4 4 0 0 0 1.14 3.109l.707.71a3.968 3.968 0 0 0 2.827 1.175c.092 0 .18-.02.27-.026a3.989 3.989 0 0 0 1.142 3.106l.706.71a3.967 3.967 0 0 0 2.829 1.176c.091 0 .179-.02.27-.026a3.993 3.993 0 0 0 1.14 3.1l.709.712A3.966 3.966 0 0 0 30 57a3.963 3.963 0 0 0 2.826-1.175l4.237-4.255a3.991 3.991 0 0 0 1.142-3.109c.091.006.18.026.272.026zM53.315 9.7a16.126 16.126 0 0 1 0 22.714l-.389.391A3.969 3.969 0 0 0 51.907 31L36.361 15.388a3.065 3.065 0 0 0-4.244 0l-7.772 7.805a4.077 4.077 0 0 1-5.649 0 1.012 1.012 0 0 1 0-1.426L30.709 9.7a15.934 15.934 0 0 1 22.6 0zm-46.63 0a15.9 15.9 0 0 1 21.869-.671L17.28 20.354a3.016 3.016 0 0 0 0 4.25 5.985 5.985 0 0 0 8.484 0l7.771-7.804a1.012 1.012 0 0 1 1.408 0l15.546 15.61a2.018 2.018 0 0 1 0 2.845l-.707.71a2.034 2.034 0 0 1-2.821 0L35.655 24.611a1 1 0 0 0-1.418 1.412l11.306 11.354a2.02 2.02 0 0 1 0 2.846l-.706.71a2.037 2.037 0 0 1-2.821 0L30.709 29.578a1 1 0 0 0-1.418 1.412L40.6 42.345a2.019 2.019 0 0 1 0 2.843l-.707.711a1.988 1.988 0 0 1-2.822 0c0-.005-.013-.007-.019-.012l-.686-.7a4.018 4.018 0 0 0-3.1-1.109 3.988 3.988 0 0 0-1.138-3.145l-.706-.711a3.971 3.971 0 0 0-2.829-1.176c-.092 0-.18.02-.271.026a3.991 3.991 0 0 0-1.14-3.107l-.707-.711a4 4 0 0 0-3.1-1.112A3.988 3.988 0 0 0 22.229 31l-.706-.711a3.99 3.99 0 0 0-5.658 0l-4.239 4.257a3.975 3.975 0 0 0-1.018 1.811l-3.923-3.94a16.127 16.127 0 0 1 0-22.717zm8.476 30.4a1.978 1.978 0 0 1-1.41-.587l-.706-.709a2.021 2.021 0 0 1 0-2.847l4.238-4.257a1.988 1.988 0 0 1 2.822 0l.707.711a2.02 2.02 0 0 1 0 2.846l-4.24 4.257a1.977 1.977 0 0 1-1.411.586zm4.946 4.967a1.978 1.978 0 0 1-1.41-.587l-.707-.709a2.021 2.021 0 0 1 0-2.847l4.239-4.257a1.992 1.992 0 0 1 2.823 0l.706.711a2.021 2.021 0 0 1 0 2.847l-4.239 4.255a1.978 1.978 0 0 1-1.412.588zm3.536 4.38-.707-.711a2.017 2.017 0 0 1 0-2.845l4.239-4.257a2.037 2.037 0 0 1 2.822 0l.707.711a2.018 2.018 0 0 1 0 2.841l-.006.005-4.237 4.255v.005a2.035 2.035 0 0 1-2.818-.003zm12 .71-4.233 4.257a1.987 1.987 0 0 1-2.819 0l-.709-.711a2.018 2.018 0 0 1 0-2.841l4.24-4.262a1.974 1.974 0 0 1 1.4-.58 2 2 0 0 1 1.414.582l.7.716a2.016 2.016 0 0 1 .011 2.84z" fill="#000000" opacity="1" data-original="#000000"></path></g></svg>