<svg xmlns="http://www.w3.org/2000/svg" version="1.1" xmlns:xlink="http://www.w3.org/1999/xlink" width="512" height="512" x="0" y="0" viewBox="0 0 512 512" style="enable-background:new 0 0 512 512" xml:space="preserve" class=""><g><path d="M256 32C132.288 32 32 132.288 32 256s100.288 224 224 224 224-100.288 224-224S379.712 32 256 32zm0 416c-106.039 0-192-85.961-192-192S149.961 64 256 64s192 85.961 192 192-85.961 192-192 192z" fill="#656565" opacity="1" data-original="#000000" class=""></path><path d="m361.6 195.36-48-32c-7.787-4.177-17.486-1.251-21.663 6.536A16 16 0 0 0 296 189.92l4 2.72H160c-8.837 0-16 7.163-16 16s7.163 16 16 16h139.2l-4 2.72c-6.997 5.397-8.295 15.444-2.898 22.441A16.004 16.004 0 0 0 304 256a15.037 15.037 0 0 0 8.8-2.72l48-32c.854-.639 5.947-4.579 6.645-11.636.829-8.379-5.264-13.786-5.845-14.284zM151.2 316l48 32a15.042 15.042 0 0 0 8.8 4c8.836-.068 15.944-7.287 15.876-16.123a16.001 16.001 0 0 0-7.076-13.157l-4-2.72H352c8.837 0 16-7.163 16-16s-7.163-16-16-16H212.8l4-2.72c7.787-4.177 10.713-13.876 6.536-21.663s-13.876-10.713-21.663-6.536a16 16 0 0 0-2.474 1.639l-48 32c-.501.348-6.796 4.891-6.637 12.945.154 7.677 6.037 11.918 6.638 12.335z" fill="#656565" opacity="1" data-original="#000000" class=""></path></g></svg>