<svg xmlns="http://www.w3.org/2000/svg" version="1.1" xmlns:xlink="http://www.w3.org/1999/xlink" width="512" height="512" x="0" y="0" viewBox="0 0 60 60" style="enable-background:new 0 0 512 512" xml:space="preserve"><g><path d="M16 12v-2c0-1.654-1.346-3-3-3H9c-1.654 0-3 1.346-3 3v2c0 1.654 1.346 3 3 3h4c1.654 0 3-1.346 3-3zm-2 0a1 1 0 0 1-1 1H9a1 1 0 0 1-1-1v-2a1 1 0 0 1 1-1h4a1 1 0 0 1 1 1z" fill="#000000" opacity="1" data-original="#000000"></path><path d="M58.983 54.692 51.83 38.967c7.406-7.47 9.753-12.366 7.167-14.969-1.524-1.512-3.842-1.32-6.997.577V4c0-2.206-1.794-4-4-4H4C1.794 0 0 1.794 0 4v28c0 2.206 1.794 4 4 4h30.09l2.826 2.821c-3.027 3.545-4.774 6.122-6.4 8.595l-3.963-1.441a1.74 1.74 0 0 0-1.946.362l-1.094 1.095c-.331.329-.513.769-.513 1.235s.182.906.51 1.232l3.22 3.236c-.167.313-.3.576-.389.766-.419.771-.284 1.729.374 2.423.655.618 1.612.755 2.335.359.22-.104.495-.243.814-.413l3.233 3.217c.329.331.769.513 1.235.513s.906-.182 1.234-.512l1.096-1.095c.517-.517.658-1.29.362-1.946l-1.441-3.963c2.444-1.606 5.029-3.355 8.595-6.4l11.28 11.297a1.76 1.76 0 0 0 2.467-.021l.691-.691a1.784 1.784 0 0 0 .372-1.964l-.006-.013zM4 34c-1.103 0-2-.897-2-2V4c0-1.103.897-2 2-2h44c1.103 0 2 .897 2 2v21.923c-1.77 1.31-3.753 3.05-5.968 5.247l-15.737-7.159a1.785 1.785 0 0 0-1.964.372l-.691.691c-.677.677-.687 1.761 0 2.488L32.088 34zm52.683 21.775L44.938 44.012a.999.999 0 0 0-1.364-.047c-4.141 3.604-6.963 5.454-9.747 7.28a.998.998 0 0 0-.392 1.178l1.698 4.671-.8.8-3.588-3.569a.999.999 0 0 0-1.195-.163c-.557.313-1.026.558-1.427.646.157-.331.401-.801.715-1.357a1 1 0 0 0-.163-1.195l-3.569-3.588.8-.8 4.671 1.698c.435.162.961-.06 1.215-.447 1.789-2.729 3.639-5.551 7.243-9.691a.999.999 0 0 0-.047-1.364L27.224 26.32l.411-.411 16.199 7.37a1 1 0 0 0 1.121-.203l.2-.2c6.223-6.224 10.868-9.01 12.428-7.461 1.553 1.563-1.234 6.211-7.457 12.432l-.2.2a.999.999 0 0 0-.203 1.121l7.37 16.199-.41.41z" fill="#000000" opacity="1" data-original="#000000"></path><path d="M11 19H7a1 1 0 1 0 0 2h4a1 1 0 1 0 0-2zM19 19h-4a1 1 0 1 0 0 2h4a1 1 0 1 0 0-2zM28 20a1 1 0 0 0-1-1h-4a1 1 0 1 0 0 2h4a1 1 0 0 0 1-1zM31 21h4a1 1 0 1 0 0-2h-4a1 1 0 1 0 0 2zM39 21h4a1 1 0 1 0 0-2h-4a1 1 0 1 0 0 2zM7 24a1 1 0 0 0-1 1v2a1 1 0 1 0 2 0v-2a1 1 0 0 0-1-1zM11 24a1 1 0 0 0-1 1v2a1 1 0 1 0 2 0v-2a1 1 0 0 0-1-1zM17 24a1 1 0 0 0-1 1v2a1 1 0 1 0 2 0v-2a1 1 0 0 0-1-1zM21 24a1 1 0 0 0-1 1v2a1 1 0 1 0 2 0v-2a1 1 0 0 0-1-1zM41 24a1 1 0 0 0-1 1v2a1 1 0 1 0 2 0v-2a1 1 0 0 0-1-1z" fill="#000000" opacity="1" data-original="#000000"></path></g></svg>